<?xml version="1.0" encoding="UTF-8"?>
<svg id="Layer_2" data-name="Layer 2" xmlns="http://www.w3.org/2000/svg" viewBox="0 0 400.02 333.54">
  <defs>
    <style>
      .cls-1 {
        fill: #fff;
      }
    </style>
  </defs>
  <g id="Layer_1" data-name="Layer 1">
    <g>
      <path class="cls-1" d="M58.01,151.13c2.54,13.92,6.75,27.69,11.38,4.36,1.04-5.21,2.1-12.28,3.16-21.62.67-5.92,1.31-10.33,1.92-13.44.42-1.68.86-3.31,1.32-4.93,8.21-28.51,18.63-47.95,35.76-47.95,11.67,0,26.37,24.32,34.29,47.61,3.12,9.21,16.8,10.31,21.69,1.76,12.98-22.7,29.68-47.24,47.31-49.34,5.32-.64,9.79,4.63,9.51,11.28l-4,93.28c-.25,5.74,8.74,6.89,10.21,1.31l25.45-96.49c3.18-12.06,21.87-12.06,25.05,0,0,0,46.58,179.85,59.21,69.92.68-5.88,1.73-49.84,1.73-49.85,0-4.4,1.16-8.59,3.18-12.3C316.55,34.16,262.28,0,200.01,0S81.97,35.07,53.65,86.78c2.75,4.06,4.36,8.83,4.36,13.94v50.4Z"/>
      <path class="cls-1" d="M342.01,223.73c-2.28-34.42-18.91-29.97-19.46-4.34-.45,20.9,1.51,49.66-27.85,46.36-12.8-1.44-18.08-23.39-22.36-40.46-1.49-5.93-10.31-6.75-13.07-1.22-9.36,18.75-28.02,46.31-52.86,40.1-16.21-4.05-31.01-27.88-42.2-49.16-3.6-6.86-14.44-6.23-17.08.99-8.27,22.71-24.5,47.48-36.39,47.48-18.04,0-28.32-21.16-36.2-52.21,0,0,0-.02,0-.02-4.12-9.42-8.84-15.63-16.52-6.19v33.41c0,3.99-.96,7.8-2.65,11.26,28.78,50.07,82.76,83.81,144.65,83.81s117.27-34.6,145.75-85.73c-2.38-3.86-3.76-8.31-3.76-13.05v-11.03Z"/>
      <path class="cls-1" d="M53.65,86.78c-1.19-1.76-2.57-3.41-4.16-4.87-5.41-4.97-12.95-8-21.21-7.81-15.84.36-28.28,12.65-28.28,27.19v137.71c0,15.36,14.37,27.79,31.38,26.53,10.83-.8,19.75-7.16,23.98-15.81-14.05-24.44-22.12-52.75-22.12-82.96s7.41-56.24,20.41-79.98Z"/>
      <path class="cls-1" d="M391.5,77.68c-5.42-4.97-12.95-8-21.21-7.81-11.04.25-20.42,6.31-25.09,14.87,13.72,24.23,21.59,52.2,21.59,82.03s-7.65,57.04-21.02,81.04c5.35,8.67,15.84,14.35,27.61,13.48,15.16-1.12,26.64-13.12,26.64-27.08V96.47c0-7.32-3.26-13.98-8.52-18.8Z"/>
    </g>
  </g>
</svg>