<?xml version="1.0" encoding="UTF-8"?>
<svg id="Layer_2" data-name="Layer 2" xmlns="http://www.w3.org/2000/svg" viewBox="0 0 701.79 392.58">
  <defs>
    <style>
      .cls-1 {
        fill: #fff;
      }
    </style>
  </defs>
  <g id="Layer_1" data-name="Layer 1">
    <g>
      <g>
        <path class="cls-1" d="M242.08,115.81c1.95,10.67,5.17,21.22,8.72,3.34.8-3.99,1.61-9.41,2.42-16.57.51-4.53,1.01-7.91,1.47-10.3.32-1.28.66-2.54,1.01-3.78,6.29-21.84,14.28-36.74,27.4-36.74,8.94,0,20.21,18.63,26.27,36.48,2.39,7.06,12.88,7.9,16.62,1.35,9.95-17.39,22.75-36.2,36.25-37.81,4.08-.49,7.5,3.55,7.29,8.64l-3.06,71.48c-.19,4.4,6.7,5.28,7.83,1l19.5-73.94c2.44-9.24,16.76-9.24,19.2,0,0,0,35.69,137.82,45.37,53.58.52-4.5,1.33-38.19,1.33-38.2,0-3.37.89-6.58,2.44-9.43C440.19,26.17,398.61,0,350.89,0s-90.45,26.88-112.15,66.5c2.1,3.11,3.34,6.77,3.34,10.68v38.62Z"/>
        <path class="cls-1" d="M459.7,171.44c-1.75-26.38-14.49-22.96-14.91-3.32-.34,16.02,1.16,38.05-21.34,35.52-9.81-1.1-13.85-17.93-17.13-31-1.14-4.54-7.9-5.17-10.02-.93-7.17,14.37-21.47,35.48-40.5,30.73-12.42-3.1-23.76-21.36-32.34-37.67-2.76-5.26-11.07-4.78-13.09.76-6.34,17.4-18.78,36.38-27.89,36.38-13.83,0-21.7-16.22-27.74-40.01,0,0,0-.01,0-.02-3.15-7.22-6.77-11.98-12.66-4.74v25.6c0,3.05-.74,5.98-2.03,8.63,22.05,38.37,63.41,64.22,110.84,64.22s89.86-26.52,111.69-65.7c-1.83-2.96-2.88-6.37-2.88-10v-8.45Z"/>
        <path class="cls-1" d="M238.74,66.5c-.91-1.35-1.97-2.61-3.19-3.73-4.14-3.81-9.92-6.13-16.25-5.99-12.13.28-21.67,9.69-21.67,20.83v105.53c0,11.77,11.01,21.29,24.05,20.33,8.3-.61,15.13-5.49,18.37-12.12-10.76-18.73-16.95-40.42-16.95-63.57s5.67-43.09,15.64-61.29Z"/>
        <path class="cls-1" d="M497.63,59.52c-4.15-3.81-9.92-6.13-16.25-5.99-8.46.19-15.65,4.83-19.23,11.4,10.51,18.56,16.54,40,16.54,62.86s-5.86,43.71-16.1,62.1c4.1,6.64,12.14,11,21.16,10.33,11.62-.86,20.42-10.05,20.42-20.75v-105.54c0-5.61-2.5-10.71-6.53-14.4Z"/>
      </g>
      <g>
        <path class="cls-1" d="M0,390.14v-77.89c0-1.17.7-1.87,1.87-1.87h11.78c1.17,0,1.75.7,1.75,1.87v77.89c0,1.17-.58,1.87-1.75,1.87H1.87c-1.17,0-1.87-.7-1.87-1.87Z"/>
        <path class="cls-1" d="M26.47,372.76v-19.82c0-12.24,7.35-19.7,19.94-19.7h36.61c12.59,0,19.94,7.46,19.94,19.7v20.05c0,12.13-7.35,19.59-19.94,19.59h-36.61c-12.59,0-19.94-7.58-19.94-19.82ZM80.68,378.83c4.2,0,6.88-2.1,6.88-6.18v-19.59c0-3.96-2.68-6.18-6.88-6.18h-31.95c-4.2,0-6.88,2.22-6.88,6.18v19.59c0,4.08,2.68,6.18,6.88,6.18h31.95Z"/>
        <path class="cls-1" d="M187.2,343.35l.6,1.97c-.16-.68-.36-1.33-.6-1.97ZM113.51,374.71c.52,8.42,4.76,14.32,11.96,16.69-7.15-2.42-11.4-8.32-11.96-16.69ZM128.84,372.76v.12c0,3.46,2.05,5.51,5.38,5.96-3.33-.48-5.38-2.61-5.38-6.08ZM166.97,346.88h-3.15c1.77,0,3.16,0,4.34.04-.37-.03-.77-.04-1.19-.04Z"/>
        <path class="cls-1" d="M173.5,355.16v-2.91c0-3.39-1.64-5.04-5.34-5.32-.37-.03-.77-.04-1.19-.04h-31.25c-.52,0-1.02.03-1.5.1-3.33.46-5.38,2.5-5.38,5.96v19.94c0,3.46,2.05,5.51,5.38,5.96.47.07.97.1,1.5.1h31.25c.42,0,.82-.02,1.19-.04,3.7-.28,5.34-1.93,5.34-5.32v-2.91c0-1.28.93-1.87,2.21-1.87h10.49c1.4,0,2.33.7,2.33,2.33v2.8c0,2.4-.23,4.6-.73,6.58-.16.68-.35,1.33-.59,1.96-2.37,6.5-8.08,10.12-18.15,10.12h-35.68c-1.97,0-3.8-.19-5.51-.54-.28-.06-.55-.12-.82-.19-.54-.14-1.06-.29-1.57-.46h0c-7.15-2.42-11.4-8.32-11.96-16.69-.02-.27-.03-.54-.04-.82-.02-.37-.03-.75-.03-1.13v-19.82c0-.35,0-.68.03-1.01,0-.28.03-.55.04-.82.02-.25.03-.51.06-.75h0c.72-7.47,4.43-12.86,10.59-15.45.2-.08.41-.17.62-.24.22-.08.45-.17.68-.24.77-.24,1.56-.46,2.4-.64,1.71-.36,3.54-.54,5.51-.54h35.68c10.07,0,15.78,3.62,18.14,10.11l.6,1.97c.5,1.98.73,4.18.73,6.58v2.8c0,1.63-.93,2.33-2.33,2.33h-10.49c-1.28,0-2.21-.58-2.21-1.87Z"/>
        <path class="cls-1" d="M113.57,350.35c.72-7.46,4.43-12.86,10.59-15.44-6.19,2.55-9.92,7.95-10.59,15.44ZM128.84,352.94v.12c0-3.47,2.05-5.6,5.38-6.08-3.33.46-5.38,2.5-5.38,5.96ZM163.81,378.94h3.15c.42,0,.82-.02,1.19-.04-1.18.03-2.58.04-4.34.04Z"/>
        <path class="cls-1" d="M187.8,345.31l-.6-1.97c.24.63.44,1.28.6,1.97Z"/>
        <path class="cls-1" d="M196.69,374.16c0-11.89,5.48-17.02,19.01-17.02h43.14v-3.73c0-5.6-3.26-6.76-9.68-6.76h-25.77c-3.61,0-6.3,1.05-7.23,3.38-.47,1.17-1.17,1.98-2.68,1.98h-9.68c-2.45,0-3.15-1.17-3.15-3.38,0-10.61,6.18-15.39,18.89-15.39h32.18c15.39,0,22.5,6.41,22.5,19.59v37.31c0,1.17-.7,1.87-1.87,1.87h-11.78c-1.17,0-1.75-.7-1.75-1.87v-5.83h-1.05c-3.15,4.55-7.46,8.28-16.21,8.28h-25.65c-11.66,0-19.24-6.53-19.24-18.42ZM251.61,378.83c7.46,0,7.23-3.5,7.23-6.3v-3.73h-42.44c-2.45,0-4.43,1.05-4.43,5.13,0,3.73,1.98,4.9,4.43,4.9h35.21Z"/>
        <path class="cls-1" d="M285.89,390.14v-77.89c0-1.17.7-1.87,1.87-1.87h11.78c1.17,0,1.75.7,1.75,1.87v77.89c0,1.17-.58,1.87-1.75,1.87h-11.78c-1.17,0-1.87-.7-1.87-1.87Z"/>
        <path class="cls-1" d="M333.93,374.16c0-11.89,5.48-17.02,19.01-17.02h43.14v-3.73c0-5.6-3.26-6.76-9.68-6.76h-25.77c-3.61,0-6.3,1.05-7.23,3.38-.47,1.17-1.17,1.98-2.68,1.98h-9.68c-2.45,0-3.15-1.17-3.15-3.38,0-10.61,6.18-15.39,18.89-15.39h32.18c15.39,0,22.5,6.41,22.5,19.59v37.31c0,1.17-.7,1.87-1.87,1.87h-11.78c-1.17,0-1.75-.7-1.75-1.87v-5.83h-1.05c-3.15,4.55-7.46,8.28-16.21,8.28h-25.65c-11.66,0-19.24-6.53-19.24-18.42ZM388.84,378.83c7.46,0,7.23-3.5,7.23-6.3v-3.73h-42.44c-2.45,0-4.43,1.05-4.43,5.13,0,3.73,1.98,4.9,4.43,4.9h35.21Z"/>
        <path class="cls-1" d="M423.12,372.88v-37.31c0-1.17.7-1.87,1.87-1.87h11.78c1.17,0,1.75.7,1.75,1.87v37.08c0,3.96,2.68,6.06,6.88,6.06h32.18c4.43,0,6.65-2.1,6.65-6.06v-37.08c0-1.17.58-1.87,1.75-1.87h11.89c1.17,0,1.75.7,1.75,1.87v54.57c0,1.17-.58,1.87-1.75,1.87h-12.01c-.7,0-1.63-.7-1.63-1.87v-3.61h-1.05c-3.03,3.96-5.13,5.95-13.87,5.95h-26.12c-12.71,0-20.05-7.46-20.05-19.59Z"/>
        <path class="cls-1" d="M510.69,372.88v-20.06c0-12.13,7.35-19.59,20.06-19.59h26.12c8.74,0,10.84,1.98,13.87,5.95h1.05v-26.93c0-1.17.93-1.87,1.63-1.87h12.01c1.17,0,1.75.7,1.75,1.87v77.89c0,1.17-.58,1.87-1.75,1.87h-11.89c-1.17,0-1.75-.7-1.75-1.87v-3.5h-1.05c-3.03,3.96-5.13,5.95-13.87,5.95h-26.12c-12.71,0-20.06-7.58-20.06-19.7ZM566.65,378.83c2.92,0,5.13-2.1,5.13-6.18v-19.59c0-3.96-2.22-6.18-5.13-6.18h-34.28c-3.61,0-6.3,2.22-6.3,6.18v19.59c0,4.08,2.68,6.18,6.3,6.18h34.28Z"/>
        <path class="cls-1" d="M598.83,323.56v-11.31c0-1.17.7-1.87,1.87-1.87h11.78c1.17,0,1.75.7,1.75,1.87v11.31c0,1.17-.58,1.87-1.75,1.87h-11.78c-1.17,0-1.87-.7-1.87-1.87ZM598.83,390.14v-54.57c0-1.17.7-1.87,1.87-1.87h11.78c1.17,0,1.75.7,1.75,1.87v54.57c0,1.17-.58,1.87-1.75,1.87h-11.78c-1.17,0-1.87-.7-1.87-1.87Z"/>
        <path class="cls-1" d="M625.3,372.76v-19.82c0-12.24,7.35-19.7,19.94-19.7h36.61c12.59,0,19.94,7.46,19.94,19.7v20.05c0,12.13-7.35,19.59-19.94,19.59h-36.61c-12.59,0-19.94-7.58-19.94-19.82ZM679.52,378.83c4.2,0,6.88-2.1,6.88-6.18v-19.59c0-3.96-2.68-6.18-6.88-6.18h-31.95c-4.2,0-6.88,2.22-6.88,6.18v19.59c0,4.08,2.68,6.18,6.88,6.18h31.95Z"/>
      </g>
    </g>
  </g>
</svg>